<?xml version="1.0" encoding="UTF-8"?>
<svg xmlns="http://www.w3.org/2000/svg" xmlns:xlink="http://www.w3.org/1999/xlink" width="128px" height="128px" viewBox="0 0 128 128" version="1.1">
<g id="surface1">
<path style=" stroke:none;fill-rule:nonzero;fill:rgb(0%,0%,0%);fill-opacity:1;" d="M 0 0.488281 C 3.628906 0.464844 7.257812 0.445312 10.886719 0.433594 C 10.964844 0.433594 10.964844 0.433594 11.046875 0.433594 C 12.214844 0.429688 13.382812 0.425781 14.550781 0.421875 C 15.125 0.421875 15.695312 0.421875 16.269531 0.417969 C 16.324219 0.417969 16.382812 0.417969 16.441406 0.417969 C 18.285156 0.417969 20.132812 0.40625 21.980469 0.394531 C 23.875 0.382812 25.773438 0.375 27.671875 0.371094 C 27.941406 0.371094 28.207031 0.371094 28.476562 0.371094 C 28.554688 0.371094 28.554688 0.371094 28.636719 0.371094 C 29.484375 0.371094 30.332031 0.363281 31.183594 0.355469 C 32.035156 0.347656 32.890625 0.347656 33.742188 0.347656 C 34.25 0.347656 34.757812 0.347656 35.265625 0.339844 C 35.601562 0.332031 35.941406 0.332031 36.28125 0.335938 C 36.472656 0.339844 36.667969 0.339844 36.859375 0.332031 C 37.96875 0.300781 37.96875 0.300781 38.328125 0.605469 C 38.585938 0.90625 38.773438 1.230469 38.949219 1.574219 C 39.070312 1.785156 39.214844 1.976562 39.367188 2.171875 C 39.535156 2.390625 39.691406 2.617188 39.851562 2.84375 C 39.921875 2.941406 39.988281 3.046875 40.058594 3.144531 C 40.113281 3.21875 40.113281 3.21875 40.164062 3.292969 C 40.316406 3.515625 40.472656 3.734375 40.625 3.949219 C 40.65625 3.992188 40.683594 4.03125 40.710938 4.074219 C 40.964844 4.429688 41.21875 4.792969 41.476562 5.152344 C 41.597656 5.324219 41.71875 5.496094 41.839844 5.667969 C 41.890625 5.738281 41.9375 5.804688 41.988281 5.875 C 43.601562 8.152344 43.601562 8.152344 45.214844 10.429688 C 45.25 10.480469 45.25 10.480469 45.285156 10.535156 C 45.335938 10.601562 45.382812 10.671875 45.433594 10.742188 C 45.554688 10.914062 45.675781 11.082031 45.796875 11.253906 C 46.089844 11.667969 46.382812 12.082031 46.675781 12.5 C 46.933594 12.863281 47.191406 13.230469 47.449219 13.589844 C 47.570312 13.761719 47.691406 13.933594 47.8125 14.105469 C 47.863281 14.175781 47.910156 14.246094 47.960938 14.3125 C 49.574219 16.589844 49.574219 16.589844 51.1875 18.871094 C 51.210938 18.90625 51.234375 18.9375 51.261719 18.972656 C 51.308594 19.046875 51.359375 19.113281 51.40625 19.183594 C 51.527344 19.355469 51.648438 19.523438 51.769531 19.695312 C 52.0625 20.109375 52.355469 20.523438 52.648438 20.9375 C 52.90625 21.304688 53.164062 21.667969 53.421875 22.035156 C 53.542969 22.207031 53.664062 22.378906 53.785156 22.550781 C 53.835938 22.617188 53.882812 22.6875 53.933594 22.753906 C 54.8125 23.996094 55.691406 25.242188 56.574219 26.484375 C 56.597656 26.519531 56.621094 26.554688 56.648438 26.585938 C 56.695312 26.65625 56.746094 26.726562 56.792969 26.792969 C 56.914062 26.964844 57.035156 27.136719 57.15625 27.304688 C 57.449219 27.722656 57.742188 28.136719 58.035156 28.550781 C 58.292969 28.917969 58.550781 29.277344 58.808594 29.644531 C 58.929688 29.816406 59.050781 29.988281 59.171875 30.160156 C 59.222656 30.230469 59.269531 30.296875 59.320312 30.367188 C 60.394531 31.886719 61.472656 33.40625 62.546875 34.921875 C 62.570312 34.957031 62.59375 34.992188 62.621094 35.027344 C 62.667969 35.09375 62.71875 35.164062 62.765625 35.238281 C 62.886719 35.40625 63.007812 35.578125 63.128906 35.75 C 63.421875 36.160156 63.714844 36.578125 64.007812 36.992188 C 64.265625 37.355469 64.523438 37.722656 64.78125 38.082031 C 64.902344 38.253906 65.023438 38.425781 65.148438 38.597656 C 65.195312 38.667969 65.246094 38.742188 65.292969 38.808594 C 66.367188 40.328125 67.445312 41.847656 68.519531 43.367188 C 68.542969 43.398438 68.570312 43.429688 68.59375 43.46875 C 68.640625 43.539062 68.691406 43.605469 68.738281 43.675781 C 68.859375 43.847656 68.980469 44.015625 69.101562 44.1875 C 69.394531 44.601562 69.6875 45.015625 69.980469 45.429688 C 70.171875 45.703125 70.363281 45.972656 70.558594 46.246094 C 70.757812 46.527344 70.953125 46.808594 71.148438 47.089844 C 71.355469 46.898438 71.546875 46.691406 71.738281 46.472656 C 71.765625 46.4375 71.796875 46.410156 71.828125 46.371094 C 72.054688 46.117188 72.28125 45.863281 72.503906 45.605469 C 72.699219 45.386719 72.898438 45.164062 73.09375 44.941406 C 73.425781 44.574219 73.753906 44.203125 74.078125 43.832031 C 74.4375 43.425781 74.792969 43.023438 75.152344 42.617188 C 75.429688 42.3125 75.703125 42.003906 75.972656 41.695312 C 76.132812 41.511719 76.292969 41.332031 76.453125 41.152344 C 76.585938 41 76.71875 40.851562 76.851562 40.699219 C 77.15625 40.355469 77.460938 40.011719 77.765625 39.667969 C 78.070312 39.332031 78.367188 38.992188 78.667969 38.652344 C 79.023438 38.25 79.382812 37.84375 79.742188 37.441406 C 80.042969 37.101562 80.339844 36.761719 80.640625 36.425781 C 80.996094 36.019531 81.355469 35.617188 81.714844 35.214844 C 82.015625 34.878906 82.316406 34.539062 82.613281 34.199219 C 82.96875 33.792969 83.328125 33.390625 83.6875 32.988281 C 83.988281 32.648438 84.289062 32.3125 84.585938 31.972656 C 84.945312 31.570312 85.300781 31.164062 85.660156 30.757812 C 85.960938 30.421875 86.261719 30.082031 86.558594 29.746094 C 86.917969 29.339844 87.273438 28.933594 87.632812 28.535156 C 87.910156 28.226562 88.183594 27.917969 88.453125 27.609375 C 88.613281 27.425781 88.773438 27.25 88.933594 27.066406 C 89.066406 26.917969 89.199219 26.761719 89.332031 26.613281 C 89.636719 26.269531 89.941406 25.925781 90.246094 25.582031 C 90.546875 25.246094 90.847656 24.910156 91.148438 24.570312 C 91.503906 24.164062 91.859375 23.757812 92.222656 23.355469 C 92.523438 23.019531 92.820312 22.679688 93.121094 22.339844 C 93.476562 21.933594 93.835938 21.53125 94.195312 21.128906 C 94.496094 20.792969 94.792969 20.453125 95.09375 20.113281 C 95.449219 19.710938 95.808594 19.304688 96.167969 18.90625 C 96.46875 18.566406 96.769531 18.226562 97.066406 17.890625 C 97.421875 17.480469 97.78125 17.082031 98.140625 16.675781 C 98.414062 16.371094 98.6875 16.0625 98.960938 15.75 C 99.121094 15.570312 99.28125 15.390625 99.441406 15.207031 C 99.574219 15.058594 99.707031 14.910156 99.839844 14.753906 C 100.140625 14.414062 100.449219 14.070312 100.753906 13.726562 C 101.054688 13.390625 101.355469 13.050781 101.652344 12.710938 C 102.011719 12.304688 102.367188 11.902344 102.726562 11.496094 C 103.027344 11.160156 103.328125 10.820312 103.625 10.480469 C 103.984375 10.078125 104.339844 9.675781 104.699219 9.269531 C 105.003906 8.933594 105.300781 8.59375 105.601562 8.253906 C 105.957031 7.851562 106.316406 7.445312 106.675781 7.046875 C 106.976562 6.707031 107.273438 6.371094 107.574219 6.03125 C 107.929688 5.625 108.289062 5.222656 108.648438 4.816406 C 108.949219 4.480469 109.246094 4.140625 109.546875 3.800781 C 109.902344 3.398438 110.261719 2.992188 110.621094 2.589844 C 110.894531 2.285156 111.167969 1.976562 111.4375 1.667969 C 111.578125 1.507812 111.71875 1.351562 111.859375 1.191406 C 111.910156 1.132812 111.960938 1.078125 112.011719 1.019531 C 112.035156 0.992188 112.058594 0.96875 112.082031 0.941406 C 112.160156 0.851562 112.160156 0.851562 112.226562 0.753906 C 112.414062 0.507812 112.414062 0.507812 112.582031 0.453125 C 112.707031 0.441406 112.824219 0.441406 112.949219 0.445312 C 112.996094 0.441406 113.042969 0.441406 113.089844 0.441406 C 113.246094 0.441406 113.402344 0.445312 113.558594 0.445312 C 113.671875 0.445312 113.78125 0.445312 113.894531 0.445312 C 114.199219 0.445312 114.503906 0.449219 114.804688 0.449219 C 115.125 0.453125 115.441406 0.453125 115.757812 0.453125 C 116.359375 0.453125 116.960938 0.457031 117.5625 0.460938 C 118.246094 0.464844 118.929688 0.46875 119.617188 0.46875 C 121.023438 0.472656 122.433594 0.480469 123.839844 0.488281 C 123.789062 0.554688 123.738281 0.617188 123.691406 0.683594 C 123.664062 0.722656 123.632812 0.753906 123.605469 0.792969 C 123.476562 0.957031 123.335938 1.113281 123.191406 1.269531 C 123.132812 1.339844 123.070312 1.410156 123.007812 1.476562 C 122.980469 1.511719 122.949219 1.546875 122.917969 1.582031 C 122.777344 1.734375 122.644531 1.886719 122.507812 2.042969 C 122.285156 2.292969 122.0625 2.542969 121.839844 2.792969 C 121.535156 3.132812 121.234375 3.472656 120.933594 3.816406 C 120.773438 3.996094 120.613281 4.179688 120.453125 4.359375 C 120.320312 4.511719 120.1875 4.660156 120.054688 4.808594 C 119.75 5.15625 119.445312 5.5 119.140625 5.84375 C 118.835938 6.179688 118.539062 6.519531 118.238281 6.859375 C 117.882812 7.261719 117.527344 7.667969 117.164062 8.070312 C 116.863281 8.40625 116.566406 8.746094 116.265625 9.082031 C 115.910156 9.488281 115.550781 9.894531 115.191406 10.292969 C 114.890625 10.632812 114.59375 10.972656 114.292969 11.3125 C 113.9375 11.71875 113.578125 12.117188 113.21875 12.523438 C 112.917969 12.859375 112.617188 13.199219 112.320312 13.539062 C 111.964844 13.941406 111.605469 14.347656 111.246094 14.75 C 110.945312 15.085938 110.644531 15.421875 110.347656 15.761719 C 109.988281 16.167969 109.632812 16.574219 109.273438 16.976562 C 108.996094 17.28125 108.726562 17.589844 108.453125 17.902344 C 108.292969 18.082031 108.132812 18.261719 107.972656 18.441406 C 107.839844 18.59375 107.707031 18.746094 107.574219 18.898438 C 107.269531 19.242188 106.964844 19.582031 106.660156 19.925781 C 106.359375 20.261719 106.058594 20.601562 105.761719 20.941406 C 105.402344 21.347656 105.046875 21.75 104.6875 22.152344 C 104.382812 22.492188 104.085938 22.832031 103.785156 23.167969 C 103.429688 23.574219 103.070312 23.976562 102.710938 24.382812 C 102.410156 24.71875 102.113281 25.058594 101.8125 25.398438 C 101.457031 25.800781 101.097656 26.207031 100.738281 26.605469 C 100.4375 26.941406 100.140625 27.28125 99.839844 27.621094 C 99.484375 28.027344 99.125 28.429688 98.765625 28.835938 C 98.492188 29.140625 98.21875 29.449219 97.945312 29.757812 C 97.785156 29.9375 97.625 30.121094 97.464844 30.300781 C 97.332031 30.453125 97.199219 30.601562 97.070312 30.75 C 96.765625 31.097656 96.460938 31.441406 96.152344 31.785156 C 95.851562 32.121094 95.550781 32.460938 95.253906 32.800781 C 94.898438 33.207031 94.539062 33.609375 94.179688 34.011719 C 93.878906 34.351562 93.578125 34.6875 93.28125 35.027344 C 92.921875 35.429688 92.566406 35.835938 92.207031 36.242188 C 91.90625 36.578125 91.605469 36.917969 91.308594 37.253906 C 90.949219 37.660156 90.59375 38.066406 90.234375 38.464844 C 89.929688 38.800781 89.632812 39.140625 89.332031 39.480469 C 88.976562 39.886719 88.617188 40.289062 88.257812 40.691406 C 87.957031 41.03125 87.660156 41.371094 87.359375 41.707031 C 87.003906 42.109375 86.644531 42.515625 86.285156 42.917969 C 86.011719 43.226562 85.738281 43.535156 85.464844 43.84375 C 85.304688 44.027344 85.144531 44.207031 84.988281 44.390625 C 84.855469 44.539062 84.722656 44.6875 84.589844 44.839844 C 84.285156 45.183594 83.980469 45.527344 83.671875 45.871094 C 83.371094 46.207031 83.070312 46.546875 82.773438 46.886719 C 82.417969 47.289062 82.058594 47.695312 81.699219 48.09375 C 81.398438 48.433594 81.097656 48.773438 80.800781 49.109375 C 80.441406 49.519531 80.085938 49.917969 79.726562 50.324219 C 79.425781 50.660156 79.125 51 78.828125 51.339844 C 78.5 51.710938 78.171875 52.082031 77.839844 52.453125 C 77.3125 53.046875 76.789062 53.640625 76.265625 54.242188 C 76.433594 54.542969 76.613281 54.824219 76.820312 55.101562 C 77.078125 55.449219 77.328125 55.804688 77.578125 56.15625 C 77.609375 56.207031 77.644531 56.253906 77.679688 56.304688 C 77.746094 56.402344 77.8125 56.496094 77.878906 56.589844 C 78.011719 56.78125 78.144531 56.96875 78.28125 57.15625 C 78.304688 57.191406 78.328125 57.226562 78.351562 57.257812 C 78.398438 57.324219 78.445312 57.390625 78.488281 57.453125 C 78.609375 57.625 78.730469 57.796875 78.851562 57.964844 C 78.902344 58.039062 78.949219 58.105469 79 58.175781 C 79.878906 59.417969 80.761719 60.660156 81.640625 61.90625 C 81.664062 61.933594 81.6875 61.96875 81.714844 62.007812 C 81.761719 62.078125 81.8125 62.144531 81.859375 62.214844 C 81.980469 62.386719 82.101562 62.554688 82.222656 62.726562 C 82.515625 63.140625 82.808594 63.554688 83.101562 63.96875 C 83.359375 64.335938 83.617188 64.699219 83.875 65.066406 C 83.996094 65.238281 84.117188 65.410156 84.238281 65.582031 C 84.289062 65.648438 84.335938 65.71875 84.386719 65.785156 C 85.460938 67.304688 86.539062 68.824219 87.613281 70.34375 C 87.636719 70.378906 87.660156 70.414062 87.6875 70.445312 C 87.734375 70.515625 87.785156 70.582031 87.832031 70.652344 C 87.953125 70.824219 88.074219 70.996094 88.195312 71.167969 C 88.488281 71.582031 88.78125 71.996094 89.074219 72.414062 C 89.332031 72.773438 89.589844 73.140625 89.847656 73.503906 C 89.96875 73.675781 90.089844 73.847656 90.214844 74.019531 C 90.261719 74.085938 90.3125 74.15625 90.359375 74.226562 C 91.4375 75.746094 92.511719 77.261719 93.585938 78.78125 C 93.609375 78.816406 93.636719 78.851562 93.660156 78.890625 C 93.707031 78.957031 93.757812 79.027344 93.808594 79.09375 C 93.929688 79.265625 94.046875 79.433594 94.167969 79.605469 C 94.464844 80.023438 94.757812 80.433594 95.046875 80.851562 C 95.304688 81.21875 95.5625 81.582031 95.820312 81.945312 C 95.945312 82.117188 96.066406 82.289062 96.1875 82.460938 C 96.234375 82.53125 96.285156 82.597656 96.332031 82.667969 C 97.605469 84.460938 98.875 86.257812 100.148438 88.054688 C 100.171875 88.085938 100.195312 88.121094 100.21875 88.15625 C 100.269531 88.226562 100.316406 88.292969 100.367188 88.363281 C 100.488281 88.535156 100.609375 88.707031 100.730469 88.878906 C 101.023438 89.289062 101.316406 89.707031 101.609375 90.121094 C 101.867188 90.484375 102.125 90.851562 102.382812 91.214844 C 102.503906 91.386719 102.625 91.558594 102.746094 91.730469 C 102.796875 91.796875 102.84375 91.867188 102.894531 91.933594 C 103.96875 93.453125 105.042969 94.972656 106.121094 96.492188 C 106.144531 96.527344 106.167969 96.5625 106.191406 96.59375 C 106.242188 96.667969 106.292969 96.738281 106.339844 96.804688 C 106.460938 96.976562 106.582031 97.144531 106.703125 97.316406 C 106.996094 97.734375 107.289062 98.144531 107.582031 98.5625 C 107.839844 98.925781 108.097656 99.289062 108.355469 99.65625 C 108.476562 99.828125 108.597656 100 108.71875 100.171875 C 108.769531 100.242188 108.816406 100.308594 108.867188 100.378906 C 110.773438 103.070312 110.773438 103.070312 112.679688 105.761719 C 112.703125 105.796875 112.726562 105.832031 112.753906 105.867188 C 112.800781 105.933594 112.851562 106.003906 112.898438 106.074219 C 113.019531 106.246094 113.140625 106.417969 113.261719 106.582031 C 113.554688 107 113.847656 107.417969 114.140625 107.832031 C 114.398438 108.195312 114.65625 108.5625 114.914062 108.921875 C 115.035156 109.09375 115.160156 109.265625 115.28125 109.4375 C 115.328125 109.507812 115.378906 109.578125 115.425781 109.644531 C 116.503906 111.164062 117.578125 112.683594 118.652344 114.203125 C 118.675781 114.238281 118.703125 114.269531 118.726562 114.304688 C 118.777344 114.378906 118.824219 114.445312 118.875 114.515625 C 118.996094 114.683594 119.117188 114.855469 119.234375 115.027344 C 119.53125 115.4375 119.824219 115.855469 120.113281 116.269531 C 120.371094 116.636719 120.628906 117 120.886719 117.367188 C 121.011719 117.539062 121.132812 117.710938 121.253906 117.882812 C 121.300781 117.949219 121.351562 118.019531 121.398438 118.085938 C 122.476562 119.605469 123.550781 121.125 124.625 122.644531 C 124.652344 122.679688 124.675781 122.714844 124.699219 122.75 C 124.75 122.816406 124.796875 122.886719 124.847656 122.953125 C 124.96875 123.125 125.089844 123.296875 125.210938 123.464844 C 125.503906 123.882812 125.796875 124.296875 126.089844 124.710938 C 126.34375 125.078125 126.601562 125.4375 126.859375 125.804688 C 126.933594 125.910156 127.007812 126.015625 127.082031 126.117188 C 127.109375 126.152344 127.132812 126.1875 127.160156 126.226562 C 127.207031 126.292969 127.257812 126.363281 127.304688 126.433594 C 127.425781 126.597656 127.542969 126.765625 127.664062 126.929688 C 127.6875 126.964844 127.707031 126.996094 127.730469 127.027344 C 127.792969 127.109375 127.855469 127.195312 127.914062 127.277344 C 128 127.410156 128 127.410156 128 127.511719 C 124.371094 127.519531 120.738281 127.527344 117.109375 127.53125 C 117.054688 127.53125 117 127.53125 116.945312 127.53125 C 115.78125 127.535156 114.613281 127.535156 113.445312 127.535156 C 112.871094 127.535156 112.300781 127.539062 111.726562 127.539062 C 111.644531 127.539062 111.644531 127.539062 111.554688 127.539062 C 109.707031 127.539062 107.863281 127.542969 106.015625 127.546875 C 104.117188 127.550781 102.21875 127.554688 100.320312 127.554688 C 100.054688 127.558594 99.785156 127.558594 99.519531 127.558594 C 99.441406 127.558594 99.441406 127.558594 99.359375 127.558594 C 98.507812 127.558594 97.660156 127.558594 96.808594 127.5625 C 95.957031 127.566406 95.101562 127.566406 94.25 127.566406 C 93.742188 127.566406 93.234375 127.566406 92.726562 127.570312 C 92.390625 127.570312 92.050781 127.570312 91.710938 127.570312 C 91.519531 127.570312 91.324219 127.570312 91.132812 127.570312 C 90.925781 127.574219 90.714844 127.570312 90.507812 127.570312 C 90.449219 127.570312 90.386719 127.574219 90.324219 127.574219 C 89.929688 127.566406 89.929688 127.566406 89.75 127.410156 C 89.652344 127.289062 89.570312 127.175781 89.492188 127.046875 C 89.457031 126.992188 89.417969 126.941406 89.378906 126.890625 C 89.347656 126.839844 89.316406 126.792969 89.285156 126.75 C 89.25 126.695312 89.214844 126.644531 89.179688 126.589844 C 89.140625 126.539062 89.105469 126.484375 89.070312 126.429688 C 88.828125 126.074219 88.578125 125.71875 88.316406 125.375 C 88.148438 125.144531 87.984375 124.914062 87.824219 124.679688 C 87.753906 124.582031 87.683594 124.480469 87.613281 124.378906 C 87.578125 124.332031 87.546875 124.28125 87.511719 124.234375 C 87.375 124.042969 87.242188 123.851562 87.105469 123.660156 C 87.082031 123.625 87.058594 123.59375 87.035156 123.5625 C 86.988281 123.496094 86.941406 123.425781 86.894531 123.363281 C 86.53125 122.847656 86.167969 122.335938 85.804688 121.820312 C 85.546875 121.453125 85.289062 121.089844 85.03125 120.726562 C 84.910156 120.554688 84.789062 120.382812 84.667969 120.210938 C 84.617188 120.140625 84.570312 120.074219 84.519531 120.003906 C 83.25 118.207031 81.976562 116.414062 80.707031 114.617188 C 80.683594 114.582031 80.660156 114.550781 80.632812 114.515625 C 80.585938 114.445312 80.535156 114.375 80.488281 114.304688 C 80.367188 114.136719 80.246094 113.964844 80.125 113.792969 C 79.832031 113.382812 79.539062 112.964844 79.246094 112.550781 C 78.988281 112.183594 78.730469 111.820312 78.472656 111.457031 C 78.351562 111.285156 78.226562 111.113281 78.105469 110.941406 C 78.058594 110.871094 78.007812 110.800781 77.960938 110.734375 C 76.882812 109.214844 75.808594 107.695312 74.734375 106.175781 C 74.710938 106.140625 74.683594 106.105469 74.660156 106.074219 C 74.609375 106.003906 74.5625 105.933594 74.511719 105.867188 C 74.390625 105.695312 74.269531 105.523438 74.152344 105.355469 C 73.855469 104.9375 73.5625 104.523438 73.273438 104.109375 C 73.015625 103.746094 72.757812 103.382812 72.5 103.015625 C 72.375 102.84375 72.253906 102.671875 72.132812 102.5 C 72.085938 102.429688 72.035156 102.363281 71.988281 102.292969 C 70.910156 100.773438 69.835938 99.253906 68.761719 97.738281 C 68.734375 97.703125 68.710938 97.667969 68.6875 97.632812 C 68.636719 97.566406 68.589844 97.496094 68.539062 97.421875 C 68.417969 97.253906 68.296875 97.082031 68.175781 96.914062 C 67.882812 96.5 67.589844 96.082031 67.296875 95.667969 C 67.042969 95.304688 66.78125 94.9375 66.523438 94.578125 C 66.402344 94.40625 66.28125 94.234375 66.160156 94.0625 C 66.109375 93.992188 66.0625 93.917969 66.011719 93.851562 C 64.742188 92.058594 63.472656 90.261719 62.199219 88.464844 C 62.175781 88.429688 62.152344 88.402344 62.125 88.363281 C 62.078125 88.292969 62.027344 88.226562 61.980469 88.15625 C 61.859375 87.984375 61.738281 87.816406 61.617188 87.644531 C 61.324219 87.230469 61.03125 86.816406 60.738281 86.402344 C 60.480469 86.035156 60.222656 85.671875 59.964844 85.304688 C 59.84375 85.132812 59.722656 84.960938 59.601562 84.789062 C 59.550781 84.722656 59.503906 84.652344 59.453125 84.582031 C 56.226562 80.027344 56.226562 80.027344 56.152344 79.921875 C 56.105469 79.855469 56.054688 79.785156 56.007812 79.71875 C 55.878906 79.539062 55.753906 79.355469 55.625 79.175781 C 55.597656 79.136719 55.570312 79.101562 55.542969 79.0625 C 55.492188 78.992188 55.445312 78.917969 55.394531 78.847656 C 55.300781 78.714844 55.207031 78.582031 55.101562 78.457031 C 55.039062 78.371094 55.039062 78.371094 55.039062 78.265625 C 54.847656 78.410156 54.695312 78.554688 54.546875 78.742188 C 54.386719 78.929688 54.226562 79.117188 54.054688 79.300781 C 53.886719 79.476562 53.730469 79.65625 53.578125 79.84375 C 53.371094 80.085938 53.152344 80.324219 52.933594 80.558594 C 52.761719 80.746094 52.597656 80.933594 52.4375 81.128906 C 52.285156 81.3125 52.121094 81.484375 51.960938 81.65625 C 51.835938 81.789062 51.71875 81.925781 51.601562 82.070312 C 51.398438 82.316406 51.179688 82.550781 50.957031 82.78125 C 50.785156 82.96875 50.625 83.164062 50.464844 83.359375 C 50.3125 83.539062 50.148438 83.710938 49.988281 83.882812 C 49.863281 84.019531 49.746094 84.15625 49.628906 84.292969 C 49.425781 84.542969 49.207031 84.777344 48.984375 85.011719 C 48.8125 85.195312 48.652344 85.390625 48.492188 85.582031 C 48.335938 85.761719 48.175781 85.933594 48.011719 86.109375 C 47.890625 86.246094 47.773438 86.382812 47.65625 86.523438 C 47.449219 86.769531 47.234375 87.003906 47.011719 87.238281 C 46.839844 87.421875 46.679688 87.613281 46.519531 87.808594 C 46.363281 87.992188 46.203125 88.164062 46.039062 88.335938 C 45.917969 88.46875 45.800781 88.609375 45.683594 88.75 C 45.476562 88.996094 45.261719 89.230469 45.039062 89.464844 C 44.867188 89.648438 44.707031 89.84375 44.542969 90.039062 C 44.429688 90.171875 44.308594 90.304688 44.1875 90.433594 C 44.019531 90.609375 43.863281 90.792969 43.707031 90.976562 C 43.515625 91.210938 43.3125 91.429688 43.105469 91.648438 C 42.984375 91.785156 42.867188 91.921875 42.75 92.0625 C 42.542969 92.308594 42.328125 92.546875 42.105469 92.777344 C 41.933594 92.960938 41.773438 93.15625 41.613281 93.351562 C 41.457031 93.53125 41.296875 93.703125 41.132812 93.878906 C 41.011719 94.011719 40.894531 94.148438 40.777344 94.289062 C 40.570312 94.539062 40.351562 94.769531 40.132812 95.003906 C 39.960938 95.191406 39.800781 95.386719 39.636719 95.578125 C 39.484375 95.757812 39.324219 95.929688 39.160156 96.101562 C 39.035156 96.238281 38.917969 96.378906 38.804688 96.515625 C 38.597656 96.761719 38.378906 96.996094 38.160156 97.234375 C 37.988281 97.417969 37.828125 97.609375 37.664062 97.804688 C 37.511719 97.984375 37.347656 98.15625 37.1875 98.332031 C 37.0625 98.464844 36.945312 98.601562 36.828125 98.746094 C 36.625 98.988281 36.40625 99.226562 36.183594 99.457031 C 36.011719 99.644531 35.851562 99.835938 35.691406 100.03125 C 35.539062 100.214844 35.375 100.386719 35.214844 100.558594 C 35.089844 100.691406 34.972656 100.828125 34.855469 100.96875 C 34.652344 101.21875 34.433594 101.449219 34.210938 101.683594 C 34.039062 101.871094 33.878906 102.066406 33.71875 102.257812 C 33.566406 102.4375 33.402344 102.609375 33.238281 102.78125 C 33.117188 102.917969 33 103.058594 32.882812 103.195312 C 32.675781 103.441406 32.460938 103.679688 32.238281 103.914062 C 32.066406 104.09375 31.90625 104.289062 31.746094 104.484375 C 31.589844 104.664062 31.429688 104.835938 31.265625 105.011719 C 31.144531 105.144531 31.027344 105.28125 30.910156 105.421875 C 30.703125 105.671875 30.488281 105.90625 30.265625 106.136719 C 30.09375 106.324219 29.933594 106.515625 29.769531 106.710938 C 29.617188 106.894531 29.457031 107.066406 29.292969 107.238281 C 29.171875 107.371094 29.054688 107.511719 28.9375 107.648438 C 28.730469 107.898438 28.511719 108.128906 28.292969 108.367188 C 28.121094 108.550781 27.960938 108.746094 27.796875 108.9375 C 27.683594 109.074219 27.5625 109.207031 27.441406 109.335938 C 27.273438 109.511719 27.113281 109.695312 26.960938 109.878906 C 26.765625 110.109375 26.566406 110.332031 26.359375 110.550781 C 26.238281 110.6875 26.121094 110.824219 26.003906 110.960938 C 25.796875 111.210938 25.582031 111.445312 25.359375 111.679688 C 25.1875 111.863281 25.027344 112.058594 24.863281 112.25 C 24.710938 112.429688 24.550781 112.601562 24.386719 112.777344 C 24.261719 112.914062 24.144531 113.050781 24.03125 113.191406 C 23.824219 113.4375 23.605469 113.671875 23.386719 113.90625 C 23.214844 114.089844 23.054688 114.285156 22.890625 114.476562 C 22.738281 114.660156 22.574219 114.832031 22.414062 115.003906 C 22.289062 115.136719 22.171875 115.277344 22.058594 115.417969 C 21.851562 115.664062 21.632812 115.898438 21.410156 116.132812 C 21.238281 116.316406 21.078125 116.511719 20.917969 116.707031 C 20.765625 116.886719 20.601562 117.058594 20.441406 117.234375 C 20.316406 117.367188 20.199219 117.503906 20.082031 117.644531 C 19.878906 117.890625 19.660156 118.125 19.4375 118.359375 C 19.265625 118.546875 19.105469 118.738281 18.945312 118.929688 C 18.792969 119.109375 18.628906 119.285156 18.464844 119.457031 C 18.34375 119.589844 18.226562 119.730469 18.109375 119.871094 C 17.902344 120.117188 17.6875 120.351562 17.464844 120.582031 C 17.292969 120.769531 17.132812 120.964844 16.972656 121.160156 C 16.816406 121.339844 16.65625 121.511719 16.492188 121.683594 C 16.371094 121.820312 16.253906 121.957031 16.136719 122.09375 C 15.929688 122.34375 15.714844 122.578125 15.492188 122.8125 C 15.320312 122.996094 15.160156 123.191406 15 123.386719 C 14.84375 123.566406 14.683594 123.738281 14.519531 123.914062 C 14.398438 124.046875 14.28125 124.183594 14.164062 124.324219 C 13.957031 124.574219 13.738281 124.804688 13.519531 125.039062 C 13.347656 125.226562 13.1875 125.417969 13.023438 125.609375 C 12.871094 125.792969 12.707031 125.964844 12.546875 126.136719 C 12.421875 126.269531 12.304688 126.410156 12.191406 126.550781 C 11.976562 126.808594 11.75 127.050781 11.519531 127.292969 C 11.410156 127.402344 11.410156 127.402344 11.359375 127.511719 C 7.609375 127.511719 3.863281 127.511719 0 127.511719 C 0.0976562 127.324219 0.179688 127.21875 0.324219 127.070312 C 0.496094 126.886719 0.664062 126.695312 0.828125 126.5 C 1.019531 126.269531 1.21875 126.050781 1.425781 125.828125 C 1.550781 125.695312 1.667969 125.558594 1.785156 125.417969 C 1.988281 125.171875 2.207031 124.933594 2.429688 124.703125 C 2.601562 124.515625 2.761719 124.324219 2.921875 124.128906 C 3.074219 123.949219 3.238281 123.773438 3.398438 123.601562 C 3.523438 123.46875 3.640625 123.332031 3.757812 123.191406 C 3.960938 122.941406 4.179688 122.710938 4.402344 122.476562 C 4.574219 122.289062 4.734375 122.09375 4.894531 121.902344 C 5.046875 121.722656 5.210938 121.550781 5.375 121.378906 C 5.496094 121.242188 5.613281 121.101562 5.730469 120.964844 C 5.9375 120.71875 6.152344 120.484375 6.375 120.25 C 6.546875 120.066406 6.707031 119.871094 6.867188 119.675781 C 7.023438 119.496094 7.183594 119.324219 7.347656 119.148438 C 7.46875 119.015625 7.585938 118.878906 7.703125 118.738281 C 7.910156 118.488281 8.125 118.253906 8.347656 118.023438 C 8.519531 117.835938 8.679688 117.644531 8.84375 117.449219 C 8.996094 117.265625 9.15625 117.09375 9.320312 116.921875 C 9.441406 116.789062 9.558594 116.652344 9.675781 116.511719 C 9.882812 116.261719 10.101562 116.03125 10.320312 115.796875 C 10.492188 115.609375 10.652344 115.417969 10.816406 115.222656 C 10.96875 115.042969 11.132812 114.871094 11.292969 114.699219 C 11.417969 114.5625 11.535156 114.421875 11.648438 114.28125 C 11.855469 114.039062 12.074219 113.800781 12.292969 113.570312 C 12.464844 113.382812 12.628906 113.191406 12.789062 112.996094 C 12.941406 112.816406 13.105469 112.640625 13.265625 112.46875 C 13.390625 112.335938 13.507812 112.199219 13.625 112.058594 C 13.828125 111.808594 14.046875 111.578125 14.269531 111.34375 C 14.441406 111.15625 14.601562 110.960938 14.761719 110.769531 C 14.914062 110.585938 15.078125 110.417969 15.238281 110.246094 C 15.363281 110.109375 15.480469 109.96875 15.597656 109.832031 C 15.800781 109.582031 16.019531 109.351562 16.242188 109.113281 C 16.414062 108.929688 16.574219 108.738281 16.734375 108.542969 C 16.890625 108.363281 17.050781 108.191406 17.214844 108.015625 C 17.335938 107.882812 17.453125 107.746094 17.570312 107.601562 C 17.777344 107.359375 17.992188 107.121094 18.214844 106.890625 C 18.386719 106.703125 18.546875 106.511719 18.707031 106.316406 C 18.863281 106.132812 19.023438 105.960938 19.1875 105.789062 C 19.308594 105.65625 19.425781 105.519531 19.542969 105.378906 C 19.75 105.128906 19.964844 104.898438 20.1875 104.664062 C 20.359375 104.476562 20.519531 104.28125 20.683594 104.085938 C 20.835938 103.910156 20.996094 103.738281 21.160156 103.566406 C 21.285156 103.425781 21.398438 103.289062 21.515625 103.152344 C 21.722656 102.90625 21.941406 102.667969 22.160156 102.433594 C 22.332031 102.25 22.492188 102.058594 22.65625 101.863281 C 22.769531 101.726562 22.890625 101.59375 23.011719 101.464844 C 23.179688 101.285156 23.339844 101.105469 23.492188 100.917969 C 23.6875 100.691406 23.886719 100.46875 24.09375 100.25 C 24.214844 100.113281 24.332031 99.976562 24.449219 99.835938 C 24.65625 99.589844 24.875 99.355469 25.09375 99.121094 C 25.265625 98.933594 25.425781 98.746094 25.589844 98.550781 C 25.742188 98.367188 25.90625 98.195312 26.066406 98.023438 C 26.191406 97.890625 26.308594 97.75 26.421875 97.609375 C 26.628906 97.363281 26.847656 97.128906 27.066406 96.898438 C 27.238281 96.710938 27.402344 96.515625 27.5625 96.320312 C 27.714844 96.140625 27.878906 95.96875 28.039062 95.796875 C 28.164062 95.660156 28.28125 95.523438 28.398438 95.382812 C 28.601562 95.136719 28.820312 94.902344 29.042969 94.667969 C 29.214844 94.480469 29.375 94.289062 29.535156 94.09375 C 29.6875 93.917969 29.851562 93.746094 30.011719 93.570312 C 30.136719 93.433594 30.253906 93.296875 30.371094 93.15625 C 30.574219 92.910156 30.792969 92.675781 31.015625 92.441406 C 31.1875 92.253906 31.347656 92.0625 31.507812 91.871094 C 31.664062 91.6875 31.824219 91.515625 31.988281 91.34375 C 32.109375 91.210938 32.226562 91.070312 32.34375 90.929688 C 32.550781 90.683594 32.765625 90.449219 32.988281 90.214844 C 33.160156 90.03125 33.320312 89.835938 33.480469 89.640625 C 33.636719 89.460938 33.796875 89.289062 33.960938 89.113281 C 34.082031 88.980469 34.199219 88.84375 34.316406 88.703125 C 34.523438 88.457031 34.738281 88.222656 34.960938 87.988281 C 35.132812 87.800781 35.292969 87.609375 35.457031 87.417969 C 35.609375 87.234375 35.769531 87.0625 35.933594 86.890625 C 36.054688 86.753906 36.171875 86.617188 36.289062 86.476562 C 36.496094 86.230469 36.714844 85.996094 36.933594 85.761719 C 37.105469 85.578125 37.265625 85.382812 37.429688 85.1875 C 37.582031 85.007812 37.746094 84.835938 37.90625 84.664062 C 38.03125 84.527344 38.148438 84.390625 38.261719 84.25 C 38.46875 84.003906 38.6875 83.765625 38.90625 83.535156 C 39.078125 83.351562 39.242188 83.15625 39.402344 82.960938 C 39.554688 82.78125 39.71875 82.609375 39.878906 82.433594 C 40.003906 82.300781 40.121094 82.164062 40.238281 82.023438 C 40.441406 81.773438 40.660156 81.542969 40.882812 81.308594 C 41.054688 81.121094 41.214844 80.929688 41.375 80.738281 C 41.527344 80.554688 41.691406 80.382812 41.855469 80.210938 C 41.976562 80.078125 42.09375 79.933594 42.210938 79.796875 C 42.414062 79.550781 42.632812 79.316406 42.855469 79.082031 C 43.027344 78.898438 43.1875 78.703125 43.347656 78.507812 C 43.503906 78.328125 43.664062 78.15625 43.828125 77.980469 C 43.949219 77.847656 44.066406 77.710938 44.183594 77.570312 C 44.390625 77.324219 44.605469 77.085938 44.828125 76.855469 C 45 76.667969 45.160156 76.476562 45.320312 76.28125 C 45.4375 76.144531 45.558594 76.015625 45.679688 75.886719 C 45.847656 75.707031 46.003906 75.527344 46.160156 75.339844 C 46.351562 75.109375 46.554688 74.890625 46.761719 74.667969 C 46.882812 74.535156 47 74.398438 47.117188 74.253906 C 47.324219 74.007812 47.539062 73.773438 47.761719 73.542969 C 47.933594 73.355469 48.09375 73.160156 48.253906 72.96875 C 48.410156 72.785156 48.570312 72.613281 48.734375 72.441406 C 48.898438 72.261719 49.050781 72.078125 49.207031 71.886719 C 49.296875 71.78125 49.386719 71.683594 49.484375 71.585938 C 49.507812 71.5625 49.535156 71.535156 49.558594 71.507812 C 49.628906 71.4375 49.699219 71.367188 49.773438 71.296875 C 49.878906 71.183594 49.878906 71.183594 49.851562 71.074219 C 49.785156 70.894531 49.667969 70.746094 49.554688 70.585938 C 49.5 70.515625 49.445312 70.4375 49.390625 70.367188 C 49.351562 70.308594 49.351562 70.308594 49.308594 70.25 C 49.183594 70.078125 49.0625 69.90625 48.941406 69.734375 C 48.890625 69.664062 48.84375 69.59375 48.792969 69.527344 C 48.597656 69.25 48.402344 68.96875 48.203125 68.691406 C 47.949219 68.324219 47.691406 67.960938 47.429688 67.59375 C 47.308594 67.421875 47.1875 67.25 47.066406 67.082031 C 47.019531 67.011719 46.96875 66.941406 46.921875 66.875 C 45.84375 65.355469 44.769531 63.835938 43.691406 62.316406 C 43.65625 62.265625 43.65625 62.265625 43.621094 62.214844 C 43.570312 62.144531 43.523438 62.078125 43.472656 62.007812 C 43.351562 61.835938 43.230469 61.664062 43.109375 61.492188 C 42.816406 61.082031 42.523438 60.664062 42.230469 60.25 C 41.972656 59.886719 41.714844 59.519531 41.457031 59.15625 C 41.335938 58.984375 41.214844 58.8125 41.09375 58.640625 C 41.042969 58.574219 40.996094 58.503906 40.945312 58.433594 C 39.871094 56.917969 38.796875 55.398438 37.71875 53.878906 C 37.683594 53.824219 37.683594 53.824219 37.648438 53.773438 C 37.597656 53.703125 37.546875 53.632812 37.5 53.566406 C 37.378906 53.394531 37.257812 53.226562 37.136719 53.054688 C 36.84375 52.636719 36.550781 52.226562 36.257812 51.808594 C 36 51.441406 35.742188 51.082031 35.484375 50.714844 C 35.363281 50.542969 35.242188 50.371094 35.121094 50.199219 C 35.070312 50.128906 35.023438 50.0625 34.972656 49.992188 C 33.359375 47.714844 33.359375 47.714844 31.746094 45.433594 C 31.710938 45.386719 31.710938 45.386719 31.671875 45.332031 C 31.625 45.261719 31.574219 45.195312 31.527344 45.125 C 31.40625 44.953125 31.285156 44.78125 31.164062 44.613281 C 30.871094 44.199219 30.578125 43.78125 30.285156 43.371094 C 30.027344 43.003906 29.769531 42.636719 29.511719 42.273438 C 29.390625 42.101562 29.269531 41.929688 29.148438 41.757812 C 29.097656 41.691406 29.050781 41.621094 29 41.554688 C 27.925781 40.035156 26.847656 38.515625 25.773438 36.996094 C 25.75 36.960938 25.726562 36.925781 25.699219 36.894531 C 25.652344 36.824219 25.601562 36.75 25.554688 36.683594 C 25.433594 36.515625 25.3125 36.34375 25.191406 36.171875 C 24.898438 35.757812 24.605469 35.34375 24.3125 34.925781 C 24.054688 34.5625 23.796875 34.199219 23.539062 33.835938 C 23.417969 33.664062 23.296875 33.492188 23.171875 33.320312 C 23.125 33.25 23.074219 33.179688 23.027344 33.109375 C 21.949219 31.589844 20.875 30.074219 19.800781 28.554688 C 19.777344 28.519531 19.75 28.484375 19.726562 28.449219 C 19.675781 28.382812 19.628906 28.3125 19.578125 28.246094 C 19.457031 28.074219 19.339844 27.902344 19.21875 27.734375 C 18.921875 27.316406 18.628906 26.902344 18.339844 26.488281 C 18.082031 26.121094 17.824219 25.757812 17.566406 25.394531 C 17.441406 25.222656 17.320312 25.050781 17.199219 24.878906 C 17.152344 24.808594 17.101562 24.742188 17.054688 24.671875 C 15.976562 23.152344 14.902344 21.632812 13.828125 20.113281 C 13.800781 20.082031 13.777344 20.046875 13.753906 20.011719 C 13.703125 19.941406 13.65625 19.875 13.605469 19.800781 C 13.484375 19.632812 13.363281 19.460938 13.242188 19.289062 C 12.949219 18.878906 12.65625 18.460938 12.363281 18.046875 C 12.109375 17.683594 11.851562 17.316406 11.589844 16.953125 C 11.46875 16.78125 11.347656 16.609375 11.226562 16.4375 C 11.179688 16.371094 11.128906 16.296875 11.078125 16.230469 C 10.003906 14.710938 8.929688 13.191406 7.851562 11.671875 C 7.828125 11.640625 7.804688 11.605469 7.78125 11.570312 C 7.730469 11.5 7.683594 11.429688 7.632812 11.363281 C 7.511719 11.191406 7.390625 11.023438 7.269531 10.851562 C 6.976562 10.433594 6.683594 10.023438 6.390625 9.605469 C 6.132812 9.242188 5.875 8.878906 5.617188 8.511719 C 5.496094 8.339844 5.375 8.167969 5.253906 7.996094 C 5.203125 7.925781 5.15625 7.859375 5.105469 7.789062 C 4.03125 6.269531 2.957031 4.75 1.878906 3.234375 C 1.84375 3.183594 1.84375 3.183594 1.808594 3.128906 C 1.757812 3.0625 1.707031 2.992188 1.660156 2.921875 C 1.539062 2.75 1.417969 2.582031 1.296875 2.410156 C 1.25 2.34375 1.203125 2.273438 1.152344 2.207031 C 1.128906 2.175781 1.105469 2.140625 1.082031 2.105469 C 0.945312 1.914062 0.804688 1.714844 0.667969 1.519531 C 0.621094 1.453125 0.621094 1.453125 0.574219 1.386719 C 0.511719 1.296875 0.453125 1.210938 0.390625 1.125 C 0.363281 1.082031 0.335938 1.046875 0.308594 1.003906 C 0.28125 0.96875 0.257812 0.933594 0.234375 0.902344 C 0.179688 0.828125 0.125 0.757812 0.0703125 0.691406 C 0 0.589844 0 0.589844 0 0.488281 Z M 15.414062 8.773438 C 15.472656 8.867188 15.53125 8.953125 15.589844 9.046875 C 15.625 9.09375 15.65625 9.148438 15.691406 9.199219 C 15.808594 9.378906 15.9375 9.546875 16.066406 9.714844 C 16.292969 10.011719 16.515625 10.316406 16.730469 10.621094 C 16.921875 10.898438 17.121094 11.171875 17.316406 11.441406 C 17.589844 11.820312 17.863281 12.203125 18.132812 12.582031 C 18.492188 13.082031 18.855469 13.582031 19.214844 14.082031 C 19.371094 14.296875 19.523438 14.515625 19.679688 14.730469 C 19.742188 14.816406 19.804688 14.902344 19.867188 14.988281 C 19.992188 15.160156 20.117188 15.332031 20.238281 15.503906 C 20.269531 15.550781 20.300781 15.589844 20.332031 15.632812 C 20.394531 15.722656 20.457031 15.808594 20.519531 15.894531 C 20.675781 16.105469 20.828125 16.320312 20.984375 16.535156 C 21.351562 17.046875 21.714844 17.554688 22.082031 18.066406 C 22.40625 18.515625 22.730469 18.964844 23.054688 19.417969 C 23.210938 19.632812 23.363281 19.847656 23.519531 20.0625 C 23.582031 20.148438 23.644531 20.238281 23.707031 20.320312 C 24.078125 20.839844 24.453125 21.359375 24.828125 21.875 C 24.859375 21.917969 24.886719 21.960938 24.921875 22.003906 C 24.980469 22.089844 25.042969 22.175781 25.105469 22.261719 C 25.261719 22.476562 25.414062 22.691406 25.570312 22.90625 C 25.9375 23.414062 26.304688 23.921875 26.667969 24.433594 C 26.992188 24.886719 27.316406 25.335938 27.640625 25.785156 C 27.796875 26 27.953125 26.21875 28.105469 26.429688 C 28.167969 26.519531 28.230469 26.601562 28.292969 26.691406 C 28.417969 26.863281 28.542969 27.035156 28.667969 27.210938 C 28.699219 27.25 28.726562 27.292969 28.761719 27.339844 C 28.824219 27.421875 28.882812 27.511719 28.945312 27.59375 C 29.101562 27.808594 29.253906 28.027344 29.410156 28.242188 C 29.777344 28.75 30.144531 29.253906 30.507812 29.765625 C 30.832031 30.21875 31.15625 30.671875 31.480469 31.121094 C 31.636719 31.335938 31.792969 31.550781 31.945312 31.765625 C 32.007812 31.851562 32.070312 31.9375 32.132812 32.023438 C 32.507812 32.542969 32.878906 33.0625 33.253906 33.578125 C 33.285156 33.621094 33.316406 33.664062 33.347656 33.707031 C 33.410156 33.792969 33.472656 33.882812 33.535156 33.964844 C 33.6875 34.179688 33.84375 34.394531 33.996094 34.605469 C 34.363281 35.117188 34.730469 35.625 35.09375 36.136719 C 35.417969 36.585938 35.742188 37.039062 36.070312 37.488281 C 36.222656 37.707031 36.378906 37.917969 36.535156 38.132812 C 36.59375 38.222656 36.65625 38.304688 36.71875 38.394531 C 36.84375 38.566406 36.96875 38.742188 37.09375 38.914062 C 37.125 38.953125 37.15625 38.996094 37.1875 39.042969 C 37.25 39.125 37.3125 39.214844 37.375 39.300781 C 37.527344 39.515625 37.683594 39.730469 37.835938 39.941406 C 38.203125 40.449219 38.570312 40.960938 38.933594 41.46875 C 39.257812 41.921875 39.582031 42.375 39.910156 42.824219 C 40.0625 43.039062 40.21875 43.25 40.375 43.46875 C 40.4375 43.554688 40.496094 43.640625 40.558594 43.726562 C 40.933594 44.246094 41.308594 44.761719 41.679688 45.28125 C 41.710938 45.324219 41.742188 45.367188 41.773438 45.410156 C 41.835938 45.496094 41.898438 45.582031 41.960938 45.667969 C 42.113281 45.882812 42.269531 46.09375 42.421875 46.308594 C 42.789062 46.820312 43.15625 47.328125 43.523438 47.839844 C 43.84375 48.289062 44.171875 48.742188 44.496094 49.191406 C 44.648438 49.410156 44.804688 49.621094 44.960938 49.835938 C 45.023438 49.921875 45.085938 50.011719 45.148438 50.09375 C 45.269531 50.265625 45.394531 50.441406 45.519531 50.613281 C 45.550781 50.65625 45.582031 50.699219 45.613281 50.746094 C 45.675781 50.828125 45.738281 50.917969 45.800781 51.003906 C 45.953125 51.21875 46.109375 51.429688 46.261719 51.644531 C 46.628906 52.152344 46.996094 52.664062 47.363281 53.171875 C 47.683594 53.625 48.011719 54.078125 48.335938 54.527344 C 48.488281 54.742188 48.644531 54.953125 48.800781 55.171875 C 48.863281 55.253906 48.925781 55.34375 48.988281 55.429688 C 49.359375 55.945312 49.734375 56.464844 50.105469 56.984375 C 50.136719 57.027344 50.167969 57.070312 50.199219 57.113281 C 50.261719 57.199219 50.324219 57.285156 50.386719 57.375 C 50.542969 57.585938 50.695312 57.800781 50.847656 58.015625 C 51.21875 58.523438 51.582031 59.035156 51.949219 59.542969 C 52.273438 59.996094 52.597656 60.445312 52.921875 60.898438 C 53.078125 61.109375 53.230469 61.324219 53.386719 61.542969 C 53.449219 61.625 53.511719 61.714844 53.574219 61.796875 C 53.699219 61.972656 53.820312 62.144531 53.945312 62.316406 C 53.976562 62.359375 54.007812 62.402344 54.039062 62.445312 C 54.101562 62.535156 54.164062 62.617188 54.226562 62.707031 C 54.382812 62.917969 54.535156 63.132812 54.691406 63.347656 C 55.058594 63.855469 55.421875 64.367188 55.789062 64.878906 C 56.113281 65.328125 56.4375 65.777344 56.761719 66.230469 C 56.917969 66.441406 57.070312 66.660156 57.226562 66.875 C 57.289062 66.960938 57.351562 67.046875 57.414062 67.132812 C 57.785156 67.648438 58.160156 68.167969 58.535156 68.6875 C 58.5625 68.730469 58.59375 68.769531 58.625 68.816406 C 58.6875 68.902344 58.75 68.988281 58.8125 69.078125 C 58.96875 69.289062 59.121094 69.503906 59.277344 69.71875 C 59.644531 70.226562 60.007812 70.738281 60.375 71.246094 C 60.730469 71.742188 61.085938 72.234375 61.441406 72.726562 C 61.867188 73.320312 62.296875 73.914062 62.722656 74.507812 C 63.046875 74.957031 63.371094 75.414062 63.695312 75.863281 C 63.851562 76.078125 64.003906 76.289062 64.160156 76.503906 C 64.222656 76.589844 64.285156 76.679688 64.347656 76.761719 C 64.90625 77.542969 64.90625 77.542969 65.464844 78.316406 C 65.496094 78.359375 65.527344 78.40625 65.558594 78.445312 C 65.621094 78.535156 65.683594 78.617188 65.746094 78.707031 C 65.902344 78.917969 66.054688 79.132812 66.210938 79.347656 C 66.578125 79.859375 66.941406 80.367188 67.308594 80.878906 C 67.632812 81.328125 67.957031 81.777344 68.28125 82.230469 C 68.4375 82.445312 68.589844 82.660156 68.746094 82.875 C 68.808594 82.960938 68.871094 83.046875 68.933594 83.132812 C 69.058594 83.304688 69.183594 83.476562 69.308594 83.652344 C 69.335938 83.695312 69.367188 83.738281 69.398438 83.78125 C 69.460938 83.867188 69.523438 83.953125 69.585938 84.042969 C 69.742188 84.253906 69.894531 84.46875 70.050781 84.683594 C 70.417969 85.191406 70.78125 85.703125 71.148438 86.210938 C 71.472656 86.664062 71.796875 87.113281 72.121094 87.566406 C 72.277344 87.777344 72.433594 87.992188 72.585938 88.210938 C 72.648438 88.292969 72.710938 88.382812 72.773438 88.464844 C 73.148438 88.984375 73.519531 89.503906 73.894531 90.019531 C 73.925781 90.066406 73.953125 90.105469 73.988281 90.148438 C 74.050781 90.238281 74.109375 90.324219 74.171875 90.410156 C 74.328125 90.621094 74.480469 90.835938 74.636719 91.050781 C 75.003906 91.5625 75.371094 92.070312 75.734375 92.582031 C 76.058594 93.03125 76.382812 93.480469 76.707031 93.929688 C 76.863281 94.148438 77.019531 94.363281 77.171875 94.578125 C 77.234375 94.664062 77.296875 94.75 77.359375 94.835938 C 77.921875 95.613281 77.921875 95.613281 78.480469 96.390625 C 78.511719 96.429688 78.542969 96.476562 78.574219 96.519531 C 78.636719 96.605469 78.699219 96.691406 78.761719 96.777344 C 78.914062 96.992188 79.070312 97.207031 79.222656 97.417969 C 79.589844 97.925781 79.957031 98.4375 80.320312 98.949219 C 80.644531 99.402344 80.96875 99.851562 81.296875 100.300781 C 81.449219 100.515625 81.605469 100.734375 81.761719 100.945312 C 81.820312 101.035156 81.882812 101.117188 81.945312 101.207031 C 82.070312 101.378906 82.195312 101.550781 82.320312 101.726562 C 82.351562 101.765625 82.382812 101.808594 82.414062 101.855469 C 82.476562 101.9375 82.539062 102.027344 82.601562 102.109375 C 82.753906 102.324219 82.910156 102.542969 83.0625 102.753906 C 83.429688 103.261719 83.796875 103.769531 84.160156 104.28125 C 84.484375 104.734375 84.808594 105.1875 85.136719 105.636719 C 85.289062 105.851562 85.445312 106.066406 85.601562 106.28125 C 85.664062 106.367188 85.722656 106.453125 85.785156 106.539062 C 86.347656 107.316406 86.347656 107.316406 86.90625 108.089844 C 86.9375 108.136719 86.96875 108.179688 87 108.222656 C 87.0625 108.308594 87.125 108.398438 87.1875 108.480469 C 87.339844 108.695312 87.496094 108.910156 87.648438 109.121094 C 88.015625 109.632812 88.382812 110.140625 88.75 110.652344 C 89.070312 111.101562 89.398438 111.554688 89.722656 112.003906 C 89.875 112.222656 90.03125 112.433594 90.1875 112.648438 C 90.25 112.738281 90.3125 112.820312 90.375 112.910156 C 90.496094 113.082031 90.621094 113.253906 90.746094 113.425781 C 90.777344 113.46875 90.808594 113.511719 90.839844 113.558594 C 90.902344 113.640625 90.964844 113.730469 91.027344 113.816406 C 91.179688 114.03125 91.335938 114.246094 91.488281 114.457031 C 91.855469 114.964844 92.222656 115.476562 92.589844 115.984375 C 92.910156 116.4375 93.238281 116.890625 93.5625 117.339844 C 93.6875 117.511719 93.808594 117.683594 93.933594 117.855469 C 93.996094 117.9375 94.058594 118.027344 94.117188 118.109375 C 94.28125 118.339844 94.445312 118.566406 94.609375 118.792969 C 94.644531 118.84375 94.679688 118.890625 94.714844 118.9375 C 94.78125 119.03125 94.847656 119.125 94.914062 119.21875 C 94.945312 119.257812 94.972656 119.296875 95.003906 119.34375 C 95.03125 119.378906 95.058594 119.417969 95.082031 119.453125 C 95.140625 119.535156 95.140625 119.535156 95.199219 119.585938 C 95.292969 119.59375 95.382812 119.59375 95.476562 119.59375 C 95.535156 119.59375 95.597656 119.59375 95.660156 119.59375 C 95.726562 119.59375 95.792969 119.59375 95.863281 119.59375 C 95.933594 119.59375 96.003906 119.59375 96.078125 119.59375 C 96.273438 119.59375 96.46875 119.59375 96.667969 119.59375 C 96.878906 119.59375 97.089844 119.59375 97.304688 119.59375 C 97.671875 119.59375 98.039062 119.59375 98.40625 119.59375 C 98.9375 119.59375 99.46875 119.59375 100 119.59375 C 100.863281 119.589844 101.726562 119.589844 102.585938 119.589844 C 103.425781 119.589844 104.261719 119.589844 105.101562 119.589844 C 105.152344 119.589844 105.203125 119.589844 105.257812 119.589844 C 105.515625 119.589844 105.773438 119.589844 106.03125 119.589844 C 108.183594 119.589844 110.332031 119.589844 112.480469 119.585938 C 112.421875 119.5 112.363281 119.410156 112.300781 119.316406 C 112.269531 119.265625 112.238281 119.21875 112.203125 119.164062 C 112.078125 118.972656 111.945312 118.789062 111.808594 118.605469 C 111.753906 118.53125 111.699219 118.453125 111.644531 118.378906 C 111.613281 118.339844 111.585938 118.300781 111.554688 118.257812 C 111.402344 118.050781 111.25 117.839844 111.101562 117.628906 C 111.035156 117.542969 110.972656 117.453125 110.910156 117.367188 C 110.863281 117.300781 110.863281 117.300781 110.816406 117.234375 C 110.722656 117.105469 110.628906 116.976562 110.535156 116.847656 C 110.167969 116.339844 109.804688 115.832031 109.4375 115.320312 C 109.113281 114.871094 108.789062 114.417969 108.464844 113.96875 C 108.308594 113.75 108.15625 113.539062 108 113.324219 C 107.9375 113.238281 107.875 113.148438 107.8125 113.066406 C 107.441406 112.546875 107.066406 112.027344 106.691406 111.511719 C 106.664062 111.46875 106.632812 111.421875 106.601562 111.382812 C 106.539062 111.292969 106.476562 111.210938 106.414062 111.121094 C 106.257812 110.910156 106.105469 110.695312 105.949219 110.480469 C 105.582031 109.96875 105.21875 109.460938 104.851562 108.949219 C 104.527344 108.5 104.203125 108.050781 103.878906 107.597656 C 103.722656 107.386719 103.566406 107.167969 103.414062 106.953125 C 103.351562 106.867188 103.289062 106.78125 103.226562 106.695312 C 103.101562 106.523438 102.976562 106.351562 102.851562 106.175781 C 102.824219 106.132812 102.792969 106.089844 102.761719 106.046875 C 102.699219 105.960938 102.636719 105.875 102.574219 105.789062 C 102.417969 105.574219 102.265625 105.359375 102.109375 105.144531 C 101.742188 104.636719 101.375 104.128906 101.011719 103.617188 C 100.6875 103.164062 100.363281 102.714844 100.039062 102.261719 C 99.882812 102.050781 99.726562 101.835938 99.574219 101.617188 C 99.511719 101.535156 99.449219 101.445312 99.386719 101.363281 C 99.011719 100.84375 98.640625 100.324219 98.265625 99.808594 C 98.234375 99.761719 98.207031 99.722656 98.171875 99.679688 C 98.109375 99.589844 98.046875 99.503906 97.988281 99.417969 C 97.832031 99.207031 97.679688 98.992188 97.523438 98.777344 C 97.15625 98.265625 96.789062 97.757812 96.425781 97.25 C 96.101562 96.796875 95.777344 96.347656 95.453125 95.898438 C 95.296875 95.679688 95.140625 95.464844 94.988281 95.25 C 94.925781 95.164062 94.863281 95.078125 94.800781 94.992188 C 94.675781 94.820312 94.550781 94.644531 94.425781 94.472656 C 94.394531 94.429688 94.363281 94.390625 94.332031 94.34375 C 94.269531 94.257812 94.207031 94.171875 94.144531 94.082031 C 93.992188 93.871094 93.839844 93.65625 93.683594 93.441406 C 93.316406 92.933594 92.949219 92.421875 92.585938 91.917969 C 92.261719 91.460938 91.9375 91.011719 91.613281 90.5625 C 91.457031 90.347656 91.300781 90.132812 91.148438 89.917969 C 91.085938 89.832031 91.023438 89.746094 90.960938 89.65625 C 90.585938 89.140625 90.214844 88.621094 89.839844 88.101562 C 89.808594 88.0625 89.777344 88.019531 89.746094 87.976562 C 89.683594 87.890625 89.621094 87.800781 89.558594 87.71875 C 89.40625 87.503906 89.25 87.289062 89.097656 87.078125 C 88.730469 86.566406 88.363281 86.058594 88 85.546875 C 87.675781 85.09375 87.351562 84.644531 87.023438 84.191406 C 86.871094 83.976562 86.714844 83.761719 86.558594 83.550781 C 86.496094 83.460938 86.4375 83.375 86.375 83.289062 C 86.25 83.117188 86.125 82.941406 86 82.769531 C 85.96875 82.730469 85.9375 82.6875 85.90625 82.640625 C 85.84375 82.558594 85.78125 82.46875 85.71875 82.382812 C 85.566406 82.167969 85.410156 81.953125 85.257812 81.742188 C 84.890625 81.234375 84.523438 80.722656 84.15625 80.210938 C 83.835938 79.757812 83.511719 79.308594 83.183594 78.859375 C 83.03125 78.644531 82.875 78.425781 82.71875 78.214844 C 82.65625 78.128906 82.59375 78.042969 82.535156 77.953125 C 82.160156 77.4375 81.785156 76.917969 81.414062 76.402344 C 81.382812 76.359375 81.351562 76.316406 81.320312 76.269531 C 81.257812 76.1875 81.195312 76.097656 81.132812 76.011719 C 80.980469 75.796875 80.824219 75.582031 80.671875 75.371094 C 80.304688 74.863281 79.9375 74.351562 79.570312 73.84375 C 79.25 73.390625 78.921875 72.9375 78.597656 72.488281 C 78.441406 72.273438 78.289062 72.0625 78.132812 71.84375 C 78.070312 71.757812 78.007812 71.671875 77.945312 71.585938 C 77.820312 71.414062 77.699219 71.242188 77.574219 71.070312 C 77.542969 71.027344 77.511719 70.984375 77.480469 70.9375 C 77.417969 70.851562 77.355469 70.765625 77.292969 70.679688 C 77.140625 70.464844 76.984375 70.25 76.832031 70.039062 C 76.464844 69.53125 76.097656 69.019531 75.730469 68.507812 C 75.40625 68.058594 75.082031 67.605469 74.757812 67.15625 C 74.601562 66.941406 74.449219 66.726562 74.292969 66.511719 C 74.230469 66.421875 74.167969 66.339844 74.105469 66.25 C 73.980469 66.082031 73.859375 65.910156 73.734375 65.734375 C 73.703125 65.691406 73.671875 65.648438 73.640625 65.605469 C 73.578125 65.519531 73.515625 65.429688 73.453125 65.347656 C 73.300781 65.132812 73.144531 64.917969 72.992188 64.707031 C 72.625 64.195312 72.257812 63.6875 71.890625 63.175781 C 71.566406 62.726562 71.242188 62.273438 70.917969 61.824219 C 70.761719 61.605469 70.609375 61.394531 70.453125 61.179688 C 70.390625 61.089844 70.328125 61.003906 70.265625 60.917969 C 69.894531 60.402344 69.519531 59.882812 69.148438 59.367188 C 69.117188 59.324219 69.085938 59.277344 69.054688 59.238281 C 68.992188 59.148438 68.929688 59.066406 68.867188 58.976562 C 68.710938 58.761719 68.558594 58.550781 68.402344 58.335938 C 68.035156 57.824219 67.671875 57.316406 67.304688 56.804688 C 66.980469 56.355469 66.65625 55.90625 66.332031 55.453125 C 66.175781 55.238281 66.023438 55.023438 65.867188 54.808594 C 65.804688 54.722656 65.742188 54.636719 65.679688 54.550781 C 65.308594 54.03125 64.933594 53.515625 64.558594 52.996094 C 64.527344 52.953125 64.5 52.914062 64.464844 52.867188 C 64.40625 52.777344 64.34375 52.695312 64.28125 52.605469 C 64.125 52.394531 63.972656 52.179688 63.816406 51.964844 C 63.449219 51.457031 63.082031 50.945312 62.71875 50.433594 C 62.394531 49.984375 62.070312 49.535156 61.746094 49.082031 C 61.589844 48.871094 61.433594 48.652344 61.28125 48.4375 C 61.21875 48.351562 61.15625 48.265625 61.09375 48.179688 C 60.96875 48.007812 60.84375 47.835938 60.71875 47.664062 C 60.6875 47.617188 60.660156 47.578125 60.625 47.535156 C 60.5625 47.445312 60.503906 47.359375 60.441406 47.273438 C 60.285156 47.0625 60.132812 46.847656 59.976562 46.632812 C 59.609375 46.121094 59.242188 45.613281 58.878906 45.101562 C 58.554688 44.652344 58.230469 44.203125 57.90625 43.75 C 57.75 43.535156 57.59375 43.320312 57.441406 43.105469 C 57.378906 43.019531 57.316406 42.929688 57.253906 42.847656 C 57.128906 42.675781 57.003906 42.5 56.878906 42.328125 C 56.847656 42.285156 56.820312 42.246094 56.785156 42.199219 C 56.722656 42.113281 56.660156 42.027344 56.601562 41.9375 C 56.445312 41.726562 56.292969 41.511719 56.136719 41.296875 C 55.769531 40.789062 55.402344 40.277344 55.039062 39.769531 C 54.714844 39.316406 54.390625 38.867188 54.066406 38.417969 C 53.910156 38.203125 53.753906 37.988281 53.601562 37.769531 C 53.539062 37.6875 53.476562 37.597656 53.414062 37.511719 C 53.039062 36.996094 52.667969 36.476562 52.292969 35.957031 C 52.261719 35.917969 52.230469 35.875 52.199219 35.832031 C 52.136719 35.746094 52.074219 35.65625 52.011719 35.574219 C 51.859375 35.359375 51.703125 35.144531 51.550781 34.929688 C 51.183594 34.417969 50.816406 33.914062 50.453125 33.402344 C 50.128906 32.949219 49.804688 32.496094 49.476562 32.046875 C 49.324219 31.832031 49.167969 31.617188 49.011719 31.40625 C 48.949219 31.316406 48.890625 31.230469 48.828125 31.144531 C 48.703125 30.96875 48.578125 30.796875 48.453125 30.625 C 48.421875 30.582031 48.390625 30.542969 48.359375 30.496094 C 48.296875 30.410156 48.234375 30.324219 48.171875 30.238281 C 48.019531 30.023438 47.863281 29.808594 47.710938 29.59375 C 47.34375 29.085938 46.976562 28.578125 46.613281 28.066406 C 46.289062 27.613281 45.964844 27.164062 45.636719 26.714844 C 45.484375 26.5 45.328125 26.28125 45.171875 26.070312 C 45.109375 25.984375 45.050781 25.898438 44.988281 25.808594 C 44.863281 25.636719 44.738281 25.464844 44.613281 25.292969 C 44.582031 25.25 44.550781 25.207031 44.519531 25.164062 C 44.457031 25.078125 44.394531 24.988281 44.332031 24.90625 C 44.179688 24.691406 44.023438 24.476562 43.871094 24.261719 C 43.503906 23.75 43.136719 23.246094 42.773438 22.734375 C 42.449219 22.28125 42.125 21.832031 41.796875 21.382812 C 41.644531 21.164062 41.488281 20.949219 41.332031 20.738281 C 41.269531 20.648438 41.207031 20.5625 41.148438 20.476562 C 40.773438 19.957031 40.398438 19.441406 40.027344 18.921875 C 39.996094 18.882812 39.964844 18.835938 39.933594 18.792969 C 39.871094 18.707031 39.808594 18.621094 39.746094 18.535156 C 39.59375 18.320312 39.4375 18.105469 39.285156 17.894531 C 38.917969 17.386719 38.550781 16.875 38.183594 16.363281 C 37.863281 15.914062 37.535156 15.460938 37.210938 15.011719 C 37.054688 14.796875 36.902344 14.582031 36.746094 14.367188 C 36.683594 14.277344 36.621094 14.195312 36.558594 14.105469 C 36.4375 13.933594 36.3125 13.761719 36.1875 13.585938 C 36.140625 13.527344 36.140625 13.527344 36.09375 13.460938 C 36.03125 13.375 35.96875 13.285156 35.90625 13.203125 C 35.753906 12.988281 35.597656 12.773438 35.445312 12.5625 C 35.113281 12.097656 34.78125 11.640625 34.453125 11.183594 C 33.714844 10.152344 33.714844 10.152344 32.96875 9.125 C 32.949219 9.09375 32.925781 9.066406 32.902344 9.035156 C 32.804688 8.898438 32.804688 8.898438 32.691406 8.773438 C 32.601562 8.765625 32.507812 8.765625 32.417969 8.765625 C 32.355469 8.765625 32.296875 8.765625 32.234375 8.765625 C 32.132812 8.765625 32.132812 8.765625 32.03125 8.765625 C 31.960938 8.765625 31.886719 8.765625 31.816406 8.765625 C 31.621094 8.765625 31.421875 8.765625 31.226562 8.765625 C 31.015625 8.765625 30.800781 8.765625 30.589844 8.765625 C 30.222656 8.765625 29.855469 8.765625 29.488281 8.765625 C 28.957031 8.765625 28.425781 8.765625 27.894531 8.765625 C 27.03125 8.765625 26.167969 8.769531 25.304688 8.769531 C 24.46875 8.769531 23.632812 8.769531 22.792969 8.769531 C 22.714844 8.769531 22.714844 8.769531 22.636719 8.769531 C 22.378906 8.769531 22.117188 8.769531 21.859375 8.769531 C 19.710938 8.769531 17.5625 8.769531 15.414062 8.773438 Z M 15.414062 8.773438 "/>
</g>
</svg>
